<?xml version="1.0" encoding="utf-8"?>
<!-- Generator: Adobe Illustrator 19.0.0, SVG Export Plug-In . SVG Version: 6.00 Build 0)  -->
<svg version="1.1" id="Capa_1" xmlns="http://www.w3.org/2000/svg" xmlns:xlink="http://www.w3.org/1999/xlink" x="0px" y="0px"
	 viewBox="-449 253 55 55" style="enable-background:new -449 253 55 55;" xml:space="preserve">
<style type="text/css">
	.st0{fill:#FFFBFC;}
</style>
<g>
	<path class="st0" d="M-394.1,277.4c0.1-0.2,0.1-0.5,0-0.8c-0.1-0.1-0.1-0.2-0.2-0.3l-12-12c-0.4-0.4-1-0.4-1.4,0
		c-0.4,0.4-0.4,1,0,1.4l10.3,10.3H-413v-22c0-0.6-0.4-1-1-1h-34c0,0-0.1,0-0.1,0c-0.1,0-0.1,0-0.2,0c-0.1,0-0.2,0.1-0.3,0.1
		c0,0-0.1,0-0.1,0c0,0-0.1,0.1-0.1,0.1c0,0,0,0-0.1,0c-0.1,0.1-0.1,0.2-0.2,0.3c0,0,0,0,0,0.1c0,0.1-0.1,0.2-0.1,0.4v46
		c0,0.1,0,0.2,0.1,0.4c0,0,0,0.1,0.1,0.1c0,0.1,0.1,0.1,0.1,0.2c0,0,0.1,0.1,0.1,0.1c0.1,0.1,0.1,0.1,0.2,0.1c0,0,0.1,0,0.1,0.1
		c0,0,0,0,0,0l22,7c0.1,0,0.2,0,0.3,0c0.2,0,0.4-0.1,0.6-0.2c0.3-0.2,0.4-0.5,0.4-0.8v-6h11c0.6,0,1-0.4,1-1v-22h15.6l-10.3,10.3
		c-0.4,0.4-0.4,1,0,1.4c0.2,0.2,0.5,0.3,0.7,0.3c0.3,0,0.5-0.1,0.7-0.3l12-12C-394.2,277.6-394.1,277.5-394.1,277.4z M-427,305.6
		l-20-6.4v-43.9l20,6.4V305.6z M-415,299h-10v-38c0-0.4-0.3-0.8-0.7-1l-15.9-5h26.6V299z"/>
	<path class="st0" d="M-428.6,284.1l-5-2c-0.5-0.2-1.1,0-1.3,0.6c-0.2,0.5,0,1.1,0.6,1.3l5,2c0.1,0,0.2,0.1,0.4,0.1
		c0.4,0,0.8-0.2,0.9-0.6C-427.9,284.9-428.1,284.3-428.6,284.1z"/>
</g>
</svg>
