<?xml version="1.0" encoding="utf-8"?>
<!-- Generator: Adobe Illustrator 19.0.0, SVG Export Plug-In . SVG Version: 6.00 Build 0)  -->
<svg version="1.1" id="Capa_1" xmlns="http://www.w3.org/2000/svg" xmlns:xlink="http://www.w3.org/1999/xlink" x="0px" y="0px"
	 viewBox="-449 253 55 55" style="enable-background:new -449 253 55 55;" xml:space="preserve">
<style type="text/css">
	.st0{fill:#FFFBFC;}
</style>
<g>
	<path class="st0" d="M-397.6,298.3c-4.7-4.6-7-10.1-7-16.3v-9c0-6.9-4.6-11.4-8.5-13.2c-1.1-0.5-2.3-0.9-3.5-1.2V258
		c0-2.8-2.2-5-5-5c-2.8,0-5,2.2-5,5v0.7c-1.1,0.3-2.1,0.7-3.1,1.1c-4.4,2-8.8,6.9-8.9,13.2v9c0,6.4-2.3,11.9-6.7,16.3
		c-0.3,0.3-0.4,0.7-0.2,1s0.4,0.6,0.8,0.7l9.5,1.6c1.8,0.3,3.4,0.6,4.9,0.8c1.7,3.4,5.2,5.6,8.9,5.6c3.7,0,7.2-2.2,8.9-5.6
		c1.5-0.2,3.2-0.5,4.9-0.8l9.5-1.6c0.4-0.1,0.7-0.3,0.8-0.7C-397.3,298.9-397.4,298.6-397.6,298.3z M-424.7,258c0-1.7,1.3-3,3-3
		c1.7,0,3,1.3,3,3v0.2c-2-0.3-4-0.3-6,0V258z M-421.5,306c-2.5,0-4.9-1.3-6.4-3.3c2.2,0.2,4.3,0.3,6.4,0.3c2.1,0,4.2-0.1,6.4-0.3
		C-416.6,304.7-419,306-421.5,306z M-408,299.7c-1.9,0.3-3.7,0.6-5.3,0.8c0,0,0,0,0,0c-0.7,0.1-1.4,0.2-2.1,0.2c0,0,0,0,0,0
		c-0.6,0.1-1.3,0.1-1.9,0.2c-0.1,0-0.2,0-0.4,0c-0.5,0-1.1,0.1-1.6,0.1c-0.1,0-0.2,0-0.3,0c-1.2,0-2.5,0-3.7,0c-0.1,0-0.2,0-0.3,0
		c-0.5,0-1,0-1.6-0.1c-0.1,0-0.2,0-0.4,0c-0.6,0-1.2-0.1-1.8-0.2c0,0,0,0-0.1,0c-0.7-0.1-1.4-0.1-2.1-0.2c0,0,0,0,0,0
		c-1.7-0.2-3.4-0.5-5.4-0.8l-7.7-1.3c4-4.6,6-10,6-16.3v-9c0-5.4,3.9-9.6,7.7-11.4c1.1-0.5,2.3-0.9,3.5-1.2c0,0,0,0,0,0
		c2.5-0.6,5.1-0.6,7.6-0.1c0,0,0,0,0,0c1.3,0.3,2.6,0.7,3.8,1.2c3.7,1.7,7.4,5.9,7.4,11.4v9c0,6,2.2,11.6,6.3,16.3L-408,299.7z"/>
	<path class="st0" d="M-415.3,264.3c-3.9-1.8-8.6-1.8-12.5,0c-2.2,1-5.9,4-5.9,8.7c0,0.6,0.4,1,1,1c0,0,0,0,0,0c0.5,0,1-0.4,1-1
		c0-3.7,3-6,4.8-6.9c3.3-1.5,7.4-1.5,10.8,0c0.5,0.2,1.1,0,1.3-0.5C-414.5,265.2-414.8,264.6-415.3,264.3z"/>
</g>
</svg>
