<?xml version="1.0" encoding="utf-8"?>
<!-- Generator: Adobe Illustrator 19.0.0, SVG Export Plug-In . SVG Version: 6.00 Build 0)  -->
<svg version="1.1" id="Capa_1" xmlns="http://www.w3.org/2000/svg" xmlns:xlink="http://www.w3.org/1999/xlink" x="0px" y="0px"
	 viewBox="-446 251 60 60" style="enable-background:new -446 251 60 60;" xml:space="preserve">
<style type="text/css">
	.st0{fill:#20A4F3;}
</style>
<g>
	<path class="st0" d="M-426,300c-2.2,0-4,1.8-4,4s1.8,4,4,4s4-1.8,4-4S-423.8,300-426,300z M-426,306c-1.1,0-2-0.9-2-2s0.9-2,2-2
		s2,0.9,2,2S-424.9,306-426,306z"/>
	<path class="st0" d="M-429,256h4c0.6,0,1-0.4,1-1s-0.4-1-1-1h-4c-0.6,0-1,0.4-1,1S-429.6,256-429,256z"/>
	<path class="st0" d="M-422,256h1c0.6,0,1-0.4,1-1s-0.4-1-1-1h-1c-0.6,0-1,0.4-1,1S-422.6,256-422,256z"/>
	<path class="st0" d="M-390,263h-18v-7.6c0-2.4-2-4.4-4.4-4.4h-25.2c-2.4,0-4.4,2-4.4,4.4v51.2c0,2.4,2,4.4,4.4,4.4h25.2
		c2.4,0,4.4-2,4.4-4.4V284h18V263z M-437.6,253h25.2c1.3,0,2.4,1.1,2.4,2.4v1.6h-30v-1.6C-440,254.1-438.9,253-437.6,253z
		 M-412.4,309h-25.2c-1.3,0-2.4-1.1-2.4-2.4V299h30v7.6C-410,307.9-411.1,309-412.4,309z M-410,297h-30v-38h30v4h-18v21h4v7l9.3-7
		h4.7V297z M-392,282h-16h-7.3l-6.7,5v-5h-4v-17h18h16V282z"/>
	<path class="st0" d="M-421,272h10c0.6,0,1-0.4,1-1s-0.4-1-1-1h-10c-0.6,0-1,0.4-1,1S-421.6,272-421,272z"/>
	<path class="st0" d="M-422,276c0,0.6,0.4,1,1,1h24c0.6,0,1-0.4,1-1s-0.4-1-1-1h-24C-421.6,275-422,275.4-422,276z"/>
</g>
</svg>
