<?xml version="1.0" encoding="utf-8"?>
<!-- Generator: Adobe Illustrator 19.0.0, SVG Export Plug-In . SVG Version: 6.00 Build 0)  -->
<svg version="1.1" id="Capa_1" xmlns="http://www.w3.org/2000/svg" xmlns:xlink="http://www.w3.org/1999/xlink" x="0px" y="0px"
	 viewBox="-609 371 60 60" style="enable-background:new -609 371 60 60;" xml:space="preserve">
<style type="text/css">
	.st0{fill:#20A4F3;}
</style>
<g>
	<path class="st0" d="M-550,377h-58c-0.6,0-1,0.4-1,1v38c0,0.6,0.4,1,1,1h26v3h-5v5h16v-5h-5v-3h26c0.6,0,1-0.4,1-1v-38
		C-549,377.4-549.4,377-550,377z M-573,422v1h-12v-1h5v-5h2v5H-573z M-551,415h-25h-6h-25v-36h56V415z"/>
	<path class="st0" d="M-554,405h-12.6l-0.1-0.1c-0.4-0.3-0.7-0.6-1.1-0.8l-4.6-3l-0.1-0.1c-0.4-0.2-0.7-0.3-1.1-0.3
		c-0.1,0-0.3-0.1-0.4-0.1v-1.3c0,0,0.1-0.1,0.1-0.1c0.7-0.5,1-0.7,1.2-1c0.7-1,1.4-2,1.8-3.2c1-0.4,1.8-1.3,1.8-2.4v-2.2
		c0-0.4-0.2-0.8-0.5-1.2c-0.2-0.3-0.5-0.7-0.5-1.3V387c-0.1-2.4-1.8-7-8-7s-7.9,4.6-8,7v1c0,0.6-0.3,1-0.5,1.3
		c-0.3,0.4-0.5,0.8-0.5,1.2v2.2c0,1,0.8,1.6,1.4,2c0.7,2,2.7,3.5,3.6,4.1v1.3c-0.3,0.3-1.1,0.6-1.4,0.8c-0.2,0.1-0.4,0.2-0.6,0.3
		l-4.7,2.7c-0.4,0.2-0.8,0.5-1.1,0.8l-0.1,0.1h-5.1v7h41V405z M-583,403.1c0.1-0.1,0.3-0.1,0.5-0.2c1.1-0.5,2.6-1.2,2.6-2.4v-2.6
		l-0.5-0.3c-0.8-0.4-2.9-1.9-3.3-3.5l-0.1-0.4l-0.3-0.2c-0.6-0.4-0.7-0.6-0.8-0.6v-2.1c0,0,0,0,0,0c0.6-0.8,1-1.7,1-2.6v-1
		c0-0.2,0.2-5,6-5c5.7,0,6,4.5,6,5v1c0,0.9,0.3,1.8,1,2.6l0,2.1c0,0.1-0.4,0.5-0.9,0.7l-0.5,0.2l-0.2,0.5c-0.3,1.1-1,2.1-1.7,3
		c-0.1,0.1-0.5,0.4-0.7,0.5c-0.4,0.3-0.6,0.4-0.8,0.6l-0.2,0.3v2.5c0,1.3,1.3,1.6,2,1.7c0.2,0,0.4,0.1,0.6,0.1l3.3,2.1h-16
		L-583,403.1z M-556,410h-37v-3h4.1h21.4h11.6V410z"/>
	<path class="st0" d="M-554,381h-6v6h6V381z M-556,385h-2v-2h2V385z"/>
	<path class="st0" d="M-597,405h-7v7h7V405z M-599,410h-3v-3h3V410z"/>
</g>
</svg>
