<?xml version="1.0" encoding="utf-8"?>
<!-- Generator: Adobe Illustrator 19.0.0, SVG Export Plug-In . SVG Version: 6.00 Build 0)  -->
<svg version="1.1" id="Capa_1" xmlns="http://www.w3.org/2000/svg" xmlns:xlink="http://www.w3.org/1999/xlink" x="0px" y="0px"
	 viewBox="-609 371 60 60" style="enable-background:new -609 371 60 60;" xml:space="preserve">
<style type="text/css">
	.st0{fill:#20A4F3;}
</style>
<g>
	<path class="st0" d="M-552,371h-4c-1.6,0-3,1.3-3,3v4v6v37.3l4,7v1.7c0,0.6,0.4,1,1,1s1-0.4,1-1v-1.7l4-7V384v-6v-4
		C-549,372.3-550.3,371-552,371z M-557,380h6v2h-6V380z M-554,426l-2.3-4h4.6L-554,426z M-551,420h-6v-36h6V420z M-557,378v-4
		c0-0.5,0.4-1,1-1h4c0.5,0,1,0.4,1,1v4H-557z"/>
	<path class="st0" d="M-609,371v60h10h36v-60h-36H-609z M-607,429v-56h6v56H-607z M-565,373v56h-34v-56H-565z"/>
	<path class="st0" d="M-570,395v-14h-24v14H-570z M-592,383h20v10h-20V383z"/>
	<rect x="-589" y="385" class="st0" width="14" height="2"/>
	<rect x="-589" y="389" class="st0" width="14" height="2"/>
</g>
</svg>
