<?xml version="1.0" encoding="utf-8"?>
<!-- Generator: Adobe Illustrator 19.0.0, SVG Export Plug-In . SVG Version: 6.00 Build 0)  -->
<svg version="1.1" id="Capa_1" xmlns="http://www.w3.org/2000/svg" xmlns:xlink="http://www.w3.org/1999/xlink" x="0px" y="0px"
	 viewBox="-450 255 52 52" style="enable-background:new -450 255 52 52;" xml:space="preserve">
<style type="text/css">
	.st0{fill:#FFFBFC;}
</style>
<g>
	<path class="st0" d="M-424,255c-14.3,0-26,11.7-26,26s11.7,26,26,26s26-11.7,26-26S-409.7,255-424,255z M-424,305
		c-13.2,0-24-10.8-24-24s10.8-24,24-24s24,10.8,24,24S-410.8,305-424,305z"/>
	<path class="st0" d="M-424,292c-0.6,0-1,0.4-1,1v2c0,0.6,0.4,1,1,1s1-0.4,1-1v-2C-423,292.4-423.4,292-424,292z"/>
	<path class="st0" d="M-423.9,264c0,0-0.1,0-0.1,0c-2.1,0-4.1,0.8-5.6,2.3c-1.5,1.5-2.4,3.5-2.4,5.7c0,0.6,0.4,1,1,1s1-0.4,1-1
		c0-1.6,0.6-3.1,1.8-4.3c1.2-1.1,2.7-1.8,4.3-1.7c3.2,0,5.9,2.8,5.9,5.9c0,2.1-1,4-2.8,5.1c-2.7,1.7-4.2,4.7-4.2,8.1v2.8
		c0,0.6,0.4,1,1,1s1-0.4,1-1v-2.8c0-2.6,1.3-5.1,3.3-6.4c2.3-1.5,3.7-4.1,3.7-6.8C-416.1,267.6-419.6,264.1-423.9,264z"/>
</g>
</svg>
