<?xml version="1.0" encoding="utf-8"?>
<!-- Generator: Adobe Illustrator 19.0.0, SVG Export Plug-In . SVG Version: 6.00 Build 0)  -->
<svg version="1.1" id="Capa_1" xmlns="http://www.w3.org/2000/svg" xmlns:xlink="http://www.w3.org/1999/xlink" x="0px" y="0px"
	 viewBox="-446 251 60 60" style="enable-background:new -446 251 60 60;" xml:space="preserve">
<style type="text/css">
	.st0{fill:#20A4F3;}
</style>
<path class="st0" d="M-389,264.5h-2v-3h-10v3h-4v-5.8c0-1.8-1.4-3.2-3.2-3.2h-15.6c-1.8,0-3.2,1.4-3.2,3.2v5.8h-4v-3h-10v3h-2
	c-1.7,0-3,1.4-3,3v36c0,1.7,1.4,3,3,3h54c1.7,0,3-1.4,3-3v-36C-386,265.9-387.4,264.5-389,264.5z M-399,263.5h6v1h-6V263.5z
	 M-425,258.7c0-0.7,0.5-1.2,1.2-1.2h15.6c0.7,0,1.2,0.5,1.2,1.2v5.8h-18V258.7z M-427,266.5h22h4h5v38h-40v-38h5H-427z M-439,263.5
	h6v1h-6V263.5z M-444,303.5v-36c0-0.6,0.5-1,1-1h2h3v38h-5C-443.5,304.5-444,304-444,303.5z M-388,303.5c0,0.6-0.5,1-1,1h-5v-38h3h2
	c0.6,0,1,0.5,1,1V303.5z"/>
</svg>
