<?xml version="1.0" encoding="utf-8"?>
<!-- Generator: Adobe Illustrator 19.0.0, SVG Export Plug-In . SVG Version: 6.00 Build 0)  -->
<svg version="1.1" id="Capa_1" xmlns="http://www.w3.org/2000/svg" xmlns:xlink="http://www.w3.org/1999/xlink" x="0px" y="0px"
	 viewBox="-448 253 56 56" style="enable-background:new -448 253 56 56;" xml:space="preserve">
<style type="text/css">
	.st0{fill:#FFFBFC;}
</style>
<g>
	<path class="st0" d="M-412.7,258c-0.5-0.2-1.1,0.1-1.2,0.7c-0.2,0.5,0.1,1.1,0.7,1.2c10.2,3,17.3,12.4,17.3,23
		c0,13.2-10.8,24-24,24s-24-10.8-24-24c0-10.6,7.1-20.1,17.3-23c0.5-0.2,0.8-0.7,0.7-1.2c-0.2-0.5-0.7-0.8-1.2-0.7
		c-11,3.2-18.7,13.5-18.7,25c0,14.3,11.7,26,26,26s26-11.7,26-26C-394,271.5-401.7,261.3-412.7,258z"/>
	<path class="st0" d="M-420,280c0.6,0,1-0.4,1-1v-25c0-0.6-0.4-1-1-1s-1,0.4-1,1v25C-421,279.6-420.6,280-420,280z"/>
</g>
</svg>
