<?xml version="1.0" encoding="utf-8"?>
<!-- Generator: Adobe Illustrator 19.0.0, SVG Export Plug-In . SVG Version: 6.00 Build 0)  -->
<svg version="1.1" id="Capa_1" xmlns="http://www.w3.org/2000/svg" xmlns:xlink="http://www.w3.org/1999/xlink" x="0px" y="0px"
	 viewBox="-447 252 58 58" style="enable-background:new -447 252 58 58;" xml:space="preserve">
<style type="text/css">
	.st0{fill:#20A4F3;}
</style>
<g>
	<path class="st0" d="M-410.5,280.2l-11-7c-0.3-0.2-0.7-0.2-1,0c-0.3,0.2-0.5,0.5-0.5,0.9v14c0,0.4,0.2,0.7,0.5,0.9
		c0.1,0.1,0.3,0.1,0.5,0.1c0.2,0,0.4-0.1,0.5-0.2l11-7c0.3-0.2,0.5-0.5,0.5-0.8S-410.2,280.3-410.5,280.2z M-421,286.2v-10.4
		l8.1,5.2L-421,286.2z"/>
	<path class="st0" d="M-390,258h-10h-36h-10c-0.6,0-1,0.4-1,1v11v11v11v11c0,0.6,0.4,1,1,1h10h36h10c0.6,0,1-0.4,1-1v-11v-11v-11
		v-11C-389,258.4-389.4,258-390,258z M-437,280h-8v-9h8V280z M-445,282h8v9h-8V282z M-435,292v-11v-11v-10h34v10v11v11v10h-34V292z
		 M-391,280h-8v-9h8V280z M-399,282h8v9h-8V282z M-391,260v9h-8v-9H-391z M-445,260h8v9h-8V260z M-445,302v-9h8v9H-445z M-391,302
		h-8v-9h8V302z"/>
</g>
</svg>
