<?xml version="1.0" encoding="utf-8"?>
<!-- Generator: Adobe Illustrator 19.0.0, SVG Export Plug-In . SVG Version: 6.00 Build 0)  -->
<svg version="1.1" id="Capa_1" xmlns="http://www.w3.org/2000/svg" xmlns:xlink="http://www.w3.org/1999/xlink" x="0px" y="0px"
	 viewBox="-449 253 55 55" style="enable-background:new -449 253 55 55;" xml:space="preserve">
<style type="text/css">
	.st0{fill:#20A4F3;}
</style>
<path class="st0" d="M-396.3,253.2c-0.2-0.2-0.5-0.3-0.8-0.2l-31,4c-0.5,0.1-0.9,0.5-0.9,1v6v4.2v25.4c-1.8-2.2-4.7-3.6-8-3.6
	c-5.5,0-10,4-10,9s4.5,9,10,9s10-4,10-9c0-0.2,0-0.5,0-0.7c0-0.1,0-0.1,0-0.2v-29l29-3.8v18.3c-1.8-2.2-4.7-3.6-8-3.6
	c-5.5,0-10,4-10,9s4.5,9,10,9c5.5,0,9.9-4,10-8.9c0,0,0,0,0,0v-24.9V260v-6C-396,253.7-396.1,253.4-396.3,253.2z M-437,306
	c-4.4,0-8-3.1-8-7s3.6-7,8-7s8,3.1,8,7S-432.6,306-437,306z M-406,296c-4.4,0-8-3.1-8-7s3.6-7,8-7s8,3.1,8,7S-401.6,296-406,296z
	 M-427,267.1V264v-5.1l29-3.8v4.9v3.3L-427,267.1z"/>
</svg>
