<?xml version="1.0" encoding="utf-8"?>
<!-- Generator: Adobe Illustrator 19.0.0, SVG Export Plug-In . SVG Version: 6.00 Build 0)  -->
<svg version="1.1" id="Capa_1" xmlns="http://www.w3.org/2000/svg" xmlns:xlink="http://www.w3.org/1999/xlink" x="0px" y="0px"
	 viewBox="-446 251 60 60" style="enable-background:new -446 251 60 60;" xml:space="preserve">
<style type="text/css">
	.st0{fill:#20A4F3;}
</style>
<g>
	<path class="st0" d="M-415,267h-14v14h14V267z M-417,279h-10v-10h10V279z"/>
	<path class="st0" d="M-394,267h-16c-0.6,0-1,0.4-1,1s0.4,1,1,1h16c0.6,0,1-0.4,1-1S-393.4,267-394,267z"/>
	<path class="st0" d="M-394,273h-16c-0.6,0-1,0.4-1,1s0.4,1,1,1h16c0.6,0,1-0.4,1-1S-393.4,273-394,273z"/>
	<path class="st0" d="M-394,279h-16c-0.6,0-1,0.4-1,1s0.4,1,1,1h16c0.6,0,1-0.4,1-1S-393.4,279-394,279z"/>
	<path class="st0" d="M-394,285h-33c-0.6,0-1,0.4-1,1s0.4,1,1,1h33c0.6,0,1-0.4,1-1S-393.4,285-394,285z"/>
	<path class="st0" d="M-412,291h-15c-0.6,0-1,0.4-1,1s0.4,1,1,1h15c0.6,0,1-0.4,1-1S-411.4,291-412,291z"/>
	<path class="st0" d="M-412,297h-15c-0.6,0-1,0.4-1,1s0.4,1,1,1h15c0.6,0,1-0.4,1-1S-411.4,297-412,297z"/>
	<path class="st0" d="M-412,303h-15c-0.6,0-1,0.4-1,1s0.4,1,1,1h15c0.6,0,1-0.4,1-1S-411.4,303-412,303z"/>
	<path class="st0" d="M-407,305h14v-14h-14V305z M-405,293h10v10h-10V293z"/>
	<path class="st0" d="M-387,264C-387,264-387,264-387,264l0-13h-48v30h-10v24c0,3.3,2.7,6,6,6h46c3.3,0,6-2.7,6-6L-387,264
		C-387,264-387,264-387,264z M-389,253v10h-44v-10H-389z M-443,305v-22h8v22c0,2.2-1.8,4-4,4S-443,307.2-443,305z M-393,309h-41.5
		c0,0,0,0,0-0.1c0.2-0.2,0.4-0.5,0.6-0.7c0,0,0.1-0.1,0.1-0.1c0.2-0.3,0.3-0.6,0.4-0.8c0,0,0-0.1,0-0.1c0.1-0.3,0.2-0.6,0.3-0.9
		c0,0,0-0.1,0-0.1c0.1-0.3,0.1-0.7,0.1-1.1v-24v-16h44v40C-389,307.2-390.8,309-393,309z"/>
	<path class="st0" d="M-399,255h-24v6h24V255z M-401,259h-20v-2h20V259z"/>
</g>
</svg>
