<?xml version="1.0" encoding="utf-8"?>
<!-- Generator: Adobe Illustrator 19.0.0, SVG Export Plug-In . SVG Version: 6.00 Build 0)  -->
<svg version="1.1" id="Capa_1" xmlns="http://www.w3.org/2000/svg" xmlns:xlink="http://www.w3.org/1999/xlink" x="0px" y="0px"
	 viewBox="-449 254 54 54" style="enable-background:new -449 254 54 54;" xml:space="preserve">
<style type="text/css">
	.st0{fill:#20A4F3;}
</style>
<g>
	<path class="st0" d="M-422,262c-9.4,0-17,7.6-17,17c0,7.1,4.4,13.4,11,15.9v9.1c0,0.6,0.4,1,1,1h1v2c0,0.6,0.4,1,1,1h6
		c0.6,0,1-0.4,1-1v-2h1c0.6,0,1-0.4,1-1v-9.1c6.6-2.5,11-8.8,11-15.9C-405,269.6-412.6,262-422,262z M-419,303c-0.6,0-1,0.4-1,1v2
		h-4v-2c0-0.6-0.4-1-1-1h-1v-5h8v5H-419z M-417.3,293.2c-0.4,0.1-0.7,0.5-0.7,1v1.8h-8v-1.8c0-0.4-0.3-0.8-0.7-1
		c-6.2-2-10.3-7.8-10.3-14.2c0-8.3,6.7-15,15-15s15,6.7,15,15C-407,285.5-411.1,291.2-417.3,293.2z"/>
	<path class="st0" d="M-422,260c0.6,0,1-0.4,1-1v-4c0-0.6-0.4-1-1-1s-1,0.4-1,1v4C-423,259.6-422.6,260-422,260z"/>
	<path class="st0" d="M-398,278h-4c-0.6,0-1,0.4-1,1s0.4,1,1,1h4c0.6,0,1-0.4,1-1S-397.4,278-398,278z"/>
	<path class="st0" d="M-442,278h-4c-0.6,0-1,0.4-1,1s0.4,1,1,1h4c0.6,0,1-0.4,1-1S-441.4,278-442,278z"/>
	<path class="st0" d="M-405.7,261.3l-2.8,2.8c-0.4,0.4-0.4,1,0,1.4c0.2,0.2,0.5,0.3,0.7,0.3c0.3,0,0.5-0.1,0.7-0.3l2.8-2.8
		c0.4-0.4,0.4-1,0-1.4C-404.7,260.9-405.3,260.9-405.7,261.3z"/>
	<path class="st0" d="M-436.9,292.4l-2.8,2.8c-0.4,0.4-0.4,1,0,1.4c0.2,0.2,0.5,0.3,0.7,0.3c0.3,0,0.5-0.1,0.7-0.3l2.8-2.8
		c0.4-0.4,0.4-1,0-1.4C-435.8,292-436.5,292-436.9,292.4z"/>
	<path class="st0" d="M-407.1,292.4c-0.4-0.4-1-0.4-1.4,0s-0.4,1,0,1.4l2.8,2.8c0.2,0.2,0.5,0.3,0.7,0.3c0.3,0,0.5-0.1,0.7-0.3
		c0.4-0.4,0.4-1,0-1.4L-407.1,292.4z"/>
	<path class="st0" d="M-436.9,265.6c0.2,0.2,0.5,0.3,0.7,0.3c0.3,0,0.5-0.1,0.7-0.3c0.4-0.4,0.4-1,0-1.4l-2.8-2.8
		c-0.4-0.4-1-0.4-1.4,0s-0.4,1,0,1.4L-436.9,265.6z"/>
	<path class="st0" d="M-422,267c-6.6,0-12,5.4-12,12c0,0.6,0.4,1,1,1s1-0.4,1-1c0-5.5,4.5-10,10-10c0.6,0,1-0.4,1-1
		S-421.4,267-422,267z"/>
</g>
</svg>
