<?xml version="1.0" encoding="utf-8"?>
<!-- Generator: Adobe Illustrator 19.0.0, SVG Export Plug-In . SVG Version: 6.00 Build 0)  -->
<svg version="1.1" id="Capa_1" xmlns="http://www.w3.org/2000/svg" xmlns:xlink="http://www.w3.org/1999/xlink" x="0px" y="0px"
	 viewBox="-446 251 60 60" style="enable-background:new -446 251 60 60;" xml:space="preserve">
<style type="text/css">
	.st0{fill:#FFFBFC;}
</style>
<g>
	<path class="st0" d="M-413.5,281.6l-12.9-9.4c-0.4-0.3-0.9-0.2-1.3,0.1c-0.3,0.3-0.4,0.9-0.1,1.3l9.4,12.9c0.6,0.8,1.6,1.4,2.6,1.5
		c0.1,0,0.2,0,0.3,0c0.9,0,1.8-0.4,2.5-1c0.7-0.7,1.1-1.8,1-2.8C-412.1,283.1-412.6,282.2-413.5,281.6z M-414.5,285.5
		c-0.3,0.3-0.8,0.5-1.2,0.5c-0.5,0-0.9-0.3-1.1-0.6l-5.7-7.9l7.9,5.7c0.4,0.3,0.6,0.7,0.6,1.1C-414,284.8-414.1,285.2-414.5,285.5z"
		/>
	<path class="st0" d="M-389.9,277C-389.9,277-389.9,277-389.9,277C-389.9,277-389.9,277-389.9,277c-0.6-2.3-1.5-4.5-2.7-6.5
		c0,0,0,0,0-0.1c0,0,0,0,0,0c-1-1.7-2.2-3.3-3.6-4.8l2.1-2.1l1.4,1.4l4.2-4.2l-4.2-4.2l-4.2,4.2l1.4,1.4l-2.1,2.1
		c-1.5-1.4-3.1-2.6-4.8-3.6c0,0,0,0,0,0c0,0,0,0-0.1,0c-2-1.2-4.2-2.1-6.4-2.7c0,0,0,0,0,0c0,0,0,0,0,0c-1.3-0.3-2.6-0.6-4-0.7V256
		h1.5c1.4,0,2.5-1.1,2.5-2.5s-1.1-2.5-2.5-2.5h-9c-1.4,0-2.5,1.1-2.5,2.5s1.1,2.5,2.5,2.5h1.5v1.2c-1.4,0.2-2.7,0.4-4,0.7
		c0,0,0,0,0,0c0,0,0,0,0,0c-2.3,0.6-4.4,1.5-6.4,2.7c0,0,0,0-0.1,0c0,0,0,0,0,0c-1.7,1-3.3,2.2-4.8,3.6l-2.1-2.1l1.4-1.4l-4.2-4.2
		l-4.2,4.2l4.2,4.2l1.4-1.4l2.1,2.1c-1.4,1.5-2.6,3.1-3.6,4.8c0,0,0,0,0,0c0,0,0,0,0,0.1c-1.2,2-2.1,4.2-2.7,6.4c0,0,0,0,0,0
		c0,0,0,0,0,0c-0.6,2.2-0.9,4.6-0.9,7s0.3,4.8,0.9,7c0,0,0,0,0,0c0,0,0,0,0,0c0.6,2.3,1.5,4.4,2.7,6.4c0,0,0,0,0,0.1
		c0,0,0,0.1,0.1,0.1c1.2,2,2.6,3.8,4.2,5.5c0,0,0,0,0,0.1c0,0,0,0,0.1,0c1.6,1.6,3.5,3,5.5,4.2c0,0,0,0,0,0c0,0,0.1,0,0.1,0
		c2,1.1,4.1,2,6.4,2.7c0,0,0,0,0,0c0,0,0,0,0,0c2.2,0.6,4.6,0.9,7,0.9s4.7-0.3,7-0.9c0,0,0,0,0,0c0,0,0,0,0,0
		c2.3-0.6,4.4-1.5,6.4-2.7c0,0,0.1,0,0.1,0c0,0,0,0,0,0c2-1.2,3.8-2.6,5.5-4.2c0,0,0,0,0.1,0c0,0,0,0,0-0.1c1.6-1.6,3-3.5,4.2-5.5
		c0,0,0,0,0.1-0.1c0,0,0,0,0-0.1c1.2-2,2.1-4.2,2.7-6.4c0,0,0,0,0,0c0,0,0,0,0,0c0.6-2.2,0.9-4.6,0.9-7S-389.3,279.3-389.9,277z
		 M-392.7,259.3l1.4,1.4l-1.4,1.4l-1.4-1.4L-392.7,259.3z M-440.7,260.7l1.4-1.4l1.4,1.4l-1.4,1.4L-440.7,260.7z M-394,290.9
		l1.9,0.5c-0.5,1.5-1,2.9-1.7,4.2l-1.7-1c-0.5-0.3-1.1-0.1-1.4,0.4c-0.3,0.5-0.1,1.1,0.4,1.4l1.7,1c-0.8,1.3-1.7,2.5-2.8,3.6
		l-1.4-1.4c-0.4-0.4-1-0.4-1.4,0c-0.4,0.4-0.4,1,0,1.4l1.4,1.4c-1.1,1-2.3,1.9-3.6,2.8l-1-1.7c-0.3-0.5-0.9-0.6-1.4-0.4
		c-0.5,0.3-0.6,0.9-0.4,1.4l1,1.7c-1.3,0.7-2.7,1.3-4.2,1.7l-0.5-1.9c-0.1-0.5-0.7-0.9-1.2-0.7c-0.5,0.1-0.9,0.7-0.7,1.2l0.5,1.9
		c-1.5,0.3-3,0.5-4.5,0.6v-2c0-0.6-0.4-1-1-1c-0.6,0-1,0.4-1,1v2c-1.5-0.1-3-0.3-4.5-0.6l0.5-1.9c0.1-0.5-0.2-1.1-0.7-1.2
		c-0.5-0.1-1.1,0.2-1.2,0.7l-0.5,1.9c-1.5-0.5-2.9-1-4.2-1.7l1-1.7c0.3-0.5,0.1-1.1-0.4-1.4c-0.5-0.3-1.1-0.1-1.4,0.4l-1,1.7
		c-1.3-0.8-2.5-1.7-3.6-2.8l1.4-1.4c0.4-0.4,0.4-1,0-1.4c-0.4-0.4-1-0.4-1.4,0l-1.4,1.4c-1-1.1-1.9-2.3-2.8-3.6l1.7-1
		c0.5-0.3,0.6-0.9,0.4-1.4c-0.3-0.5-0.9-0.6-1.4-0.4l-1.7,1c-0.7-1.3-1.3-2.7-1.7-4.2l1.9-0.5c0.5-0.1,0.9-0.7,0.7-1.2
		c-0.1-0.5-0.7-0.9-1.2-0.7l-1.9,0.5c-0.3-1.5-0.5-3-0.6-4.5h2c0.6,0,1-0.4,1-1s-0.4-1-1-1h-2c0.1-1.5,0.3-3,0.6-4.5l1.9,0.5
		c0.1,0,0.2,0,0.3,0c0.4,0,0.8-0.3,1-0.7c0.1-0.5-0.2-1.1-0.7-1.2l-1.9-0.5c0.5-1.5,1-2.9,1.7-4.2l1.7,1c0.2,0.1,0.3,0.1,0.5,0.1
		c0.3,0,0.7-0.2,0.9-0.5c0.3-0.5,0.1-1.1-0.4-1.4l-1.7-1c0.8-1.3,1.7-2.5,2.8-3.6l1.4,1.4c0.2,0.2,0.5,0.3,0.7,0.3
		c0.3,0,0.5-0.1,0.7-0.3c0.4-0.4,0.4-1,0-1.4l-1.4-1.4c1.1-1,2.3-1.9,3.6-2.8l1,1.7c0.2,0.3,0.5,0.5,0.9,0.5c0.2,0,0.3,0,0.5-0.1
		c0.5-0.3,0.6-0.9,0.4-1.4l-1-1.7c1.3-0.7,2.7-1.3,4.2-1.7l0.5,1.9c0.1,0.4,0.5,0.7,1,0.7c0.1,0,0.2,0,0.3,0
		c0.5-0.1,0.9-0.7,0.7-1.2l-0.5-1.9c1.2-0.3,2.4-0.4,3.6-0.5c0.3,0,0.6,0,0.9-0.1c0,0,0,0,0,0v2c0,0.6,0.4,1,1,1s1-0.4,1-1v-2
		c0,0,0,0,0,0c0.3,0,0.6,0,0.9,0.1c1.2,0.1,2.4,0.3,3.6,0.5l-0.5,1.9c-0.1,0.5,0.2,1.1,0.7,1.2c0.1,0,0.2,0,0.3,0
		c0.4,0,0.8-0.3,1-0.7l0.5-1.9c1.5,0.5,2.9,1,4.2,1.7l-1,1.7c-0.3,0.5-0.1,1.1,0.4,1.4c0.2,0.1,0.3,0.1,0.5,0.1
		c0.3,0,0.7-0.2,0.9-0.5l1-1.7c1.3,0.8,2.5,1.7,3.6,2.8l-1.4,1.4c-0.4,0.4-0.4,1,0,1.4c0.2,0.2,0.5,0.3,0.7,0.3s0.5-0.1,0.7-0.3
		l1.4-1.4c1,1.1,1.9,2.3,2.8,3.6l-1.7,1c-0.5,0.3-0.6,0.9-0.4,1.4c0.2,0.3,0.5,0.5,0.9,0.5c0.2,0,0.3,0,0.5-0.1l1.7-1
		c0.7,1.3,1.3,2.7,1.7,4.2l-1.9,0.5c-0.5,0.1-0.9,0.7-0.7,1.2c0.1,0.4,0.5,0.7,1,0.7c0.1,0,0.2,0,0.3,0l1.9-0.5
		c0.3,1.5,0.5,3,0.6,4.5h-2c-0.6,0-1,0.4-1,1s0.4,1,1,1h2c-0.1,1.5-0.3,3-0.6,4.5l-1.9-0.5c-0.5-0.1-1.1,0.2-1.2,0.7
		C-394.9,290.2-394.6,290.8-394,290.9z M-417,257v-3h-3.5c-0.3,0-0.5-0.2-0.5-0.5s0.2-0.5,0.5-0.5h9c0.3,0,0.5,0.2,0.5,0.5
		s-0.2,0.5-0.5,0.5h-3.5v3c-0.4,0-0.7,0-1,0S-416.6,257-417,257z"/>
</g>
</svg>
