<?xml version="1.0" encoding="utf-8"?>
<!-- Generator: Adobe Illustrator 19.0.0, SVG Export Plug-In . SVG Version: 6.00 Build 0)  -->
<svg version="1.1" id="Capa_1" xmlns="http://www.w3.org/2000/svg" xmlns:xlink="http://www.w3.org/1999/xlink" x="0px" y="0px"
	 viewBox="-449 254 54 54" style="enable-background:new -449 254 54 54;" xml:space="preserve">
<style type="text/css">
	.st0{fill:#FFFBFC;}
</style>
<g>
	<path class="st0" d="M-422,267c-7.7,0-14,6.3-14,14s6.3,14,14,14s14-6.3,14-14S-414.3,267-422,267z M-422,293c-6.6,0-12-5.4-12-12
		s5.4-12,12-12s12,5.4,12,12S-415.4,293-422,293z"/>
	<path class="st0" d="M-397.8,275h-2c-0.5-1.9-1.3-3.7-2.3-5.5l1.4-1.4c0.5-0.5,0.8-1.2,0.8-2c0-0.7-0.3-1.4-0.8-2l-4.6-4.6
		c-1-1-2.9-1.1-3.9,0l-1.4,1.4c-1.7-1-3.5-1.7-5.5-2.3v-2c0-1.5-1.2-2.8-2.8-2.8h-6.4c-1.5,0-2.8,1.2-2.8,2.8v2
		c-1.9,0.5-3.7,1.3-5.5,2.3l-1.4-1.4c-1.1-1.1-2.9-1-3.9,0l-4.6,4.6c-0.5,0.5-0.8,1.2-0.8,2c0,0.7,0.3,1.4,0.8,2l1.4,1.4
		c-1,1.7-1.7,3.5-2.3,5.5h-2c-1.5,0-2.8,1.2-2.8,2.8v6.4c0,1.5,1.2,2.8,2.8,2.8h2c0.5,1.9,1.3,3.7,2.3,5.5l-1.4,1.4
		c-0.5,0.5-0.8,1.2-0.8,2c0,0.7,0.3,1.4,0.8,2l4.6,4.6c1,1.1,2.9,1.1,3.9,0l1.4-1.4c1.7,1,3.5,1.7,5.5,2.3v2c0,1.5,1.2,2.8,2.8,2.8
		h6.4c1.5,0,2.8-1.2,2.8-2.8v-2c1.9-0.5,3.7-1.3,5.5-2.3l1.4,1.4c1.1,1.1,2.9,1.1,3.9,0l4.6-4.6c0.5-0.5,0.8-1.2,0.8-2
		c0-0.7-0.3-1.4-0.8-2l-1.4-1.4c1-1.7,1.7-3.5,2.3-5.5h2c1.5,0,2.8-1.2,2.8-2.8v-6.4C-395,276.2-396.2,275-397.8,275z M-397,284.2
		c0,0.4-0.4,0.8-0.8,0.8h-3.6l-0.2,0.8c-0.5,2.2-1.4,4.4-2.6,6.3l-0.4,0.7l2.5,2.5c0.3,0.3,0.3,0.8,0,1.1l-4.6,4.6
		c-0.3,0.3-0.8,0.3-1.1,0l-2.5-2.5l-0.7,0.4c-2,1.2-4.1,2.1-6.3,2.6l-0.8,0.2v3.6c0,0.4-0.4,0.8-0.8,0.8h-6.4
		c-0.4,0-0.8-0.4-0.8-0.8v-3.6l-0.8-0.2c-2.2-0.5-4.4-1.4-6.3-2.6l-0.7-0.4l-2.5,2.5c-0.3,0.3-0.8,0.3-1.1,0l-4.6-4.6
		c-0.3-0.3-0.3-0.8,0-1.1l2.5-2.5l-0.4-0.7c-1.2-2-2.1-4.1-2.6-6.3l-0.2-0.8h-3.6c-0.4,0-0.8-0.4-0.8-0.8v-6.4
		c0-0.4,0.4-0.8,0.8-0.8h3.6l0.2-0.8c0.5-2.2,1.4-4.4,2.6-6.3l0.4-0.7l-2.5-2.5c-0.3-0.3-0.3-0.8,0-1.1l4.6-4.6
		c0.3-0.3,0.8-0.3,1.1,0l2.5,2.5l0.7-0.4c2-1.2,4.1-2.1,6.3-2.6l0.8-0.2v-3.6c0-0.4,0.4-0.8,0.8-0.8h6.4c0.4,0,0.8,0.4,0.8,0.8v3.6
		l0.8,0.2c2.2,0.5,4.4,1.4,6.3,2.6l0.7,0.4l2.5-2.5c0.3-0.3,0.8-0.3,1.1,0l4.6,4.6c0.3,0.3,0.3,0.8,0,1.1l-2.5,2.5l0.4,0.7
		c1.2,1.9,2.1,4.1,2.6,6.3l0.2,0.8h3.6c0.4,0,0.8,0.4,0.8,0.8V284.2z"/>
	<path class="st0" d="M-422,271c-5.5,0-10,4.5-10,10s4.5,10,10,10s10-4.5,10-10S-416.5,271-422,271z M-422,289c-4.4,0-8-3.6-8-8
		s3.6-8,8-8s8,3.6,8,8S-417.6,289-422,289z"/>
</g>
</svg>
