<?xml version="1.0" encoding="utf-8"?>
<!-- Generator: Adobe Illustrator 19.0.0, SVG Export Plug-In . SVG Version: 6.00 Build 0)  -->
<svg version="1.1" id="Capa_1" xmlns="http://www.w3.org/2000/svg" xmlns:xlink="http://www.w3.org/1999/xlink" x="0px" y="0px"
	 viewBox="-446 251 60 60" style="enable-background:new -446 251 60 60;" xml:space="preserve">
<style type="text/css">
	.st0{fill:#20A4F3;}
</style>
<g>
	<path class="st0" d="M-425,280c-2.3-2.6-5.3-4-8.5-4c-3.2,0-6.3,1.4-8.5,4c-4.6,5.2-4.6,13.7,0,18.9l8.5,9.6l8.5-9.6
		C-420.4,293.7-420.4,285.2-425,280z M-426.5,297.5l-7,7.9l-7-7.9c-4-4.5-4-11.8,0-16.2c1.9-2.1,4.4-3.3,7-3.3s5.1,1.2,7,3.3
		C-422.5,285.8-422.5,293.1-426.5,297.5z"/>
	<path class="st0" d="M-397.3,275.5l6.5-7.3c3.5-3.9,3.5-10.3,0-14.2c-1.7-1.9-4-3-6.5-3c-2.4,0-4.7,1.1-6.5,3
		c-3.5,3.9-3.5,10.3,0,14.2L-397.3,275.5z M-402.2,255.3c1.3-1.5,3.1-2.3,5-2.3c1.9,0,3.6,0.8,5,2.3c2.8,3.2,2.8,8.4,0,11.6l-5,5.6
		l-5-5.6C-405,263.7-405,258.5-402.2,255.3z"/>
	<path class="st0" d="M-393.4,305.5c-0.5-0.1-1.1,0.2-1.2,0.8c-0.1,0.5-0.3,1-0.7,1.4c-0.3,0.4-0.3,1.1,0.2,1.4
		c0.2,0.1,0.4,0.2,0.6,0.2c0.3,0,0.6-0.1,0.8-0.4c0.5-0.6,0.9-1.4,1-2.2C-392.5,306.2-392.9,305.6-393.4,305.5z"/>
	<path class="st0" d="M-414,282c-0.4,0-0.9-0.1-1.3-0.2c-0.5-0.2-1.1,0.1-1.3,0.6c-0.2,0.5,0.1,1.1,0.6,1.3c0.6,0.2,1.3,0.4,2,0.4
		h0.4c0.6,0,1-0.4,1-1s-0.4-1-1-1H-414z"/>
	<path class="st0" d="M-416.4,275.7c0.2,0,0.4,0,0.5-0.2c0.4-0.3,0.9-0.4,1.5-0.5c0.5-0.1,0.9-0.6,0.9-1.1s-0.6-0.9-1.1-0.9
		c-0.8,0.1-1.6,0.4-2.3,0.8c-0.5,0.3-0.6,0.9-0.3,1.4C-417,275.5-416.7,275.7-416.4,275.7z"/>
	<path class="st0" d="M-427.9,309h-2c-0.6,0-1,0.4-1,1s0.4,1,1,1h2c0.6,0,1-0.4,1-1S-427.4,309-427.9,309z"/>
	<path class="st0" d="M-410,291c-0.1,0-0.2,0-0.3,0c-0.6,0-1,0.5-1,1c0,0.5,0.5,1,1,1c0,0,0,0,0,0l2,0c0.6,0,1-0.4,1-1s-0.4-1-1-1
		H-410z"/>
	<path class="st0" d="M-410.5,275h2c0.6,0,1-0.4,1-1s-0.4-1-1-1h-2c-0.6,0-1,0.4-1,1S-411.1,275-410.5,275z"/>
	<path class="st0" d="M-398.2,291c-0.6,0-1,0.4-1,1s0.4,1,1,1h2c0.6,0,1-0.4,1-1s-0.4-1-1-1H-398.2z"/>
	<path class="st0" d="M-394.6,283c0-0.6-0.4-1-1-1h-2c-0.6,0-1,0.4-1,1s0.4,1,1,1h2C-395.1,284-394.6,283.6-394.6,283z"/>
	<path class="st0" d="M-404.2,293h2c0.6,0,1-0.4,1-1s-0.4-1-1-1h-2c-0.6,0-1,0.4-1,1S-404.8,293-404.2,293z"/>
	<path class="st0" d="M-402.5,275c0.6,0,1-0.4,1-1s-0.4-1-1-1h-2c-0.6,0-1,0.4-1,1s0.4,1,1,1H-402.5z"/>
	<path class="st0" d="M-409.6,282c-0.6,0-1,0.4-1,1s0.4,1,1,1h2c0.6,0,1-0.4,1-1s-0.4-1-1-1H-409.6z"/>
	<path class="st0" d="M-400.6,283c0-0.6-0.4-1-1-1h-2c-0.6,0-1,0.4-1,1s0.4,1,1,1h2C-401.1,284-400.6,283.6-400.6,283z"/>
	<path class="st0" d="M-386.6,286.6c-0.1-0.5-0.6-0.9-1.1-0.8c-0.5,0.1-0.9,0.6-0.8,1.1c0,0.2,0,0.4,0,0.6c0,0.3,0,0.7-0.1,1
		c-0.2,0.5,0.1,1.1,0.7,1.2c0.1,0,0.2,0,0.3,0c0.4,0,0.8-0.3,1-0.7c0.1-0.5,0.2-1,0.2-1.5C-386.5,287.2-386.5,286.9-386.6,286.6z"/>
	<path class="st0" d="M-403.9,309h-2c-0.6,0-1,0.4-1,1s0.4,1,1,1h2c0.6,0,1-0.4,1-1S-403.4,309-403.9,309z"/>
	<path class="st0" d="M-409.9,309h-2c-0.6,0-1,0.4-1,1s0.4,1,1,1h2c0.6,0,1-0.4,1-1S-409.4,309-409.9,309z"/>
	<path class="st0" d="M-398.9,301c0-0.6-0.4-1-1-1h-2c-0.6,0-1,0.4-1,1s0.4,1,1,1h2C-399.4,302-398.9,301.6-398.9,301z"/>
	<path class="st0" d="M-404.9,301c0-0.6-0.4-1-1-1h-2c-0.6,0-1,0.4-1,1s0.4,1,1,1h2C-405.4,302-404.9,301.6-404.9,301z"/>
	<path class="st0" d="M-398,309h-1.9c-0.6,0-1,0.4-1,1s0.4,1,1,1l2,0l0-1v1c0.6,0,1-0.4,1-1C-397,309.4-397.5,309-398,309z"/>
	<path class="st0" d="M-394.5,303.7c0.2,0,0.4-0.1,0.6-0.2c0.4-0.3,0.5-1,0.2-1.4c-0.5-0.6-1.2-1.2-1.9-1.5c-0.5-0.2-1.1,0-1.3,0.5
		c-0.2,0.5,0,1.1,0.4,1.3c0.5,0.2,0.9,0.6,1.2,1C-395.1,303.6-394.8,303.7-394.5,303.7z"/>
	<path class="st0" d="M-390.7,290.7c-0.4,0.2-0.9,0.3-1.4,0.3h-0.2c-0.6,0-1,0.4-1,1s0.4,1,1,1h0.2c0.7,0,1.5-0.1,2.1-0.4
		c0.5-0.2,0.7-0.8,0.5-1.3C-389.6,290.8-390.1,290.5-390.7,290.7z"/>
	<path class="st0" d="M-418,280.9c0.5-0.2,0.8-0.7,0.6-1.3c-0.1-0.4-0.2-0.7-0.2-1.1c0-0.2,0-0.3,0-0.4c0.1-0.5-0.3-1-0.9-1.1
		c-0.6-0.1-1,0.3-1.1,0.9c0,0.2,0,0.5,0,0.7c0,0.6,0.1,1.2,0.3,1.7c0.1,0.4,0.5,0.7,1,0.7C-418.2,280.9-418.1,280.9-418,280.9z"/>
	<path class="st0" d="M-421.9,309h-2c-0.6,0-1,0.4-1,1s0.4,1,1,1h2c0.6,0,1-0.4,1-1S-421.4,309-421.9,309z"/>
	<path class="st0" d="M-411.9,301.6c0.4,0,0.7-0.2,0.9-0.6c0.2-0.5,0-1.1-0.5-1.3c-0.5-0.2-0.9-0.5-1.2-0.9c-0.4-0.4-1-0.5-1.4-0.1
		c-0.4,0.4-0.5,1-0.1,1.4c0.5,0.6,1.2,1.1,1.9,1.5C-412.2,301.6-412,301.6-411.9,301.6z"/>
	<path class="st0" d="M-389.3,282.7c-0.7-0.4-1.5-0.7-2.3-0.7c-0.5,0-1,0.4-1.1,0.9c0,0.6,0.4,1,0.9,1.1c0.5,0,1,0.2,1.5,0.5
		c0.2,0.1,0.3,0.1,0.5,0.1c0.3,0,0.7-0.2,0.9-0.5C-388.6,283.6-388.8,283-389.3,282.7z"/>
	<path class="st0" d="M-415.9,309h-2c-0.6,0-1,0.4-1,1s0.4,1,1,1h2c0.6,0,1-0.4,1-1S-415.4,309-415.9,309z"/>
	<path class="st0" d="M-413.4,295.8c0.1-0.5,0.3-1,0.6-1.4c0.3-0.4,0.2-1.1-0.2-1.4c-0.4-0.3-1.1-0.2-1.4,0.2
		c-0.5,0.7-0.8,1.4-1,2.2c-0.1,0.5,0.3,1.1,0.8,1.2c0.1,0,0.1,0,0.2,0C-414,296.6-413.5,296.3-413.4,295.8z"/>
	<path class="st0" d="M-397,266c3,0,5.5-2.5,5.5-5.5s-2.5-5.5-5.5-5.5c-3,0-5.5,2.5-5.5,5.5S-400,266-397,266z M-397,257
		c1.9,0,3.5,1.6,3.5,3.5s-1.6,3.5-3.5,3.5c-1.9,0-3.5-1.6-3.5-3.5S-398.9,257-397,257z"/>
	<path class="st0" d="M-433.5,282c-3.3,0-6,2.7-6,6s2.7,6,6,6c3.3,0,6-2.7,6-6S-430.2,282-433.5,282z M-433.5,292c-2.2,0-4-1.8-4-4
		s1.8-4,4-4c2.2,0,4,1.8,4,4S-431.3,292-433.5,292z"/>
</g>
</svg>
