<?xml version="1.0" encoding="utf-8"?>
<!-- Generator: Adobe Illustrator 19.0.0, SVG Export Plug-In . SVG Version: 6.00 Build 0)  -->
<svg version="1.1" id="Capa_1" xmlns="http://www.w3.org/2000/svg" xmlns:xlink="http://www.w3.org/1999/xlink" x="0px" y="0px"
	 viewBox="-446 251 60 60" style="enable-background:new -446 251 60 60;" xml:space="preserve">
<style type="text/css">
	.st0{fill:#20A4F3;}
</style>
<path class="st0" d="M-391.1,279.3c0-0.1,0-0.1,0-0.2c0,0,0,0,0,0c0-13.5-10.7-24.4-24-25v-2c0-0.6-0.4-1-1-1s-1,0.4-1,1v2
	c-13.3,0.5-24,11.5-24,25c0,0,0,0,0,0c0,0.1,0,0.1,0,0.2c0,0.1,0,0.1,0.1,0.2c0,0.1,0.1,0.1,0.1,0.1c0,0.1,0.1,0.1,0.1,0.2
	c0,0,0,0,0,0c0,0,0.1,0,0.1,0.1c0.1,0,0.1,0.1,0.2,0.1c0.1,0,0.1,0,0.2,0c0,0,0.1,0,0.1,0c0,0,0,0,0,0c0.1,0,0.1,0,0.2,0
	c0.1,0,0.1,0,0.2,0c0.1,0,0.1-0.1,0.2-0.1c0.1,0,0.1-0.1,0.2-0.1c0,0,0,0,0,0c1.4-1.7,3.3-2.6,5.2-2.6s3.8,0.9,5.2,2.6
	c0,0,0,0,0.1,0.1c0,0,0,0.1,0.1,0.1c0,0,0.1,0,0.1,0.1c0.1,0,0.1,0.1,0.2,0.1c0.1,0,0.2,0,0.2,0.1c0,0,0.1,0,0.1,0c0,0,0,0,0,0
	c0.1,0,0.1,0,0.1,0c0.1,0,0.1,0,0.2-0.1c0,0,0.1,0,0.1-0.1c0,0,0.1,0,0.1-0.1c0,0,0,0,0.1-0.1c0,0,0.1,0,0.1-0.1
	c1.4-1.7,3.3-2.6,5.2-2.6c1.9,0,3.6,0.9,5,2.4V306c0,1.7-1.3,3-3,3s-3-1.3-3-3c0-0.6-0.4-1-1-1s-1,0.4-1,1c0,2.8,2.2,5,5,5
	s5-2.2,5-5v-26.6c1.4-1.5,3.1-2.4,5-2.4c2,0,3.8,0.9,5.2,2.6c0,0,0,0,0.1,0.1c0,0,0,0.1,0.1,0.1c0,0,0.1,0,0.1,0.1
	c0.1,0,0.1,0.1,0.2,0.1c0.1,0,0.2,0,0.2,0.1c0,0,0.1,0,0.1,0c0,0,0,0,0,0c0.1,0,0.1,0,0.1,0c0.1,0,0.1,0,0.2-0.1
	c0.1,0,0.1-0.1,0.1-0.1c0,0,0.1,0,0.1-0.1c0,0,0,0,0.1-0.1c0,0,0.1,0,0.1-0.1c1.4-1.7,3.3-2.6,5.2-2.6s3.8,0.9,5.2,2.6c0,0,0,0,0,0
	c0.1,0.1,0.2,0.1,0.2,0.2c0,0,0.1,0,0.1,0.1c0.1,0.1,0.3,0.1,0.4,0.1l0,0l0,0c0.1,0,0.2,0,0.4-0.1c0,0,0.1,0,0.1-0.1
	c0.1,0,0.1,0,0.2-0.1c0,0,0,0,0,0c0.1,0,0.1-0.1,0.1-0.2c0,0,0.1-0.1,0.1-0.1C-391.1,279.4-391.1,279.3-391.1,279.3z M-398,275
	c-2.2,0-4.3,0.9-6,2.5c-1.7-1.6-3.8-2.5-6-2.5s-4.3,0.9-6,2.5c-1.7-1.6-3.8-2.5-6-2.5s-4.3,0.9-6,2.5c-1.7-1.6-3.8-2.5-6-2.5
	c-1.8,0-3.4,0.6-4.9,1.6c1.2-11.6,11-20.6,22.9-20.6s21.7,9,22.9,20.6C-394.6,275.6-396.3,275-398,275z"/>
</svg>
