<?xml version="1.0" encoding="utf-8"?>
<!-- Generator: Adobe Illustrator 19.0.0, SVG Export Plug-In . SVG Version: 6.00 Build 0)  -->
<svg version="1.1" id="Capa_1" xmlns="http://www.w3.org/2000/svg" xmlns:xlink="http://www.w3.org/1999/xlink" x="0px" y="0px"
	 viewBox="-450 255 52 52" style="enable-background:new -450 255 52 52;" xml:space="preserve">
<style type="text/css">
	.st0{fill:#FFFBFC;}
</style>
<g>
	<path class="st0" d="M-398.1,271.2c-0.8-8.4-6.7-14.4-14.1-14.4c-4.9,0-9.4,2.7-12,6.9c-2.5-4.3-6.8-6.9-11.7-6.9
		c-7.4,0-13.3,6.1-14.1,14.4c-0.1,0.4-0.3,2.3,0.4,5.5c1.1,4.6,3.6,8.7,7.2,12l18.1,16.4l18.4-16.4c3.6-3.3,6.1-7.4,7.2-12
		C-397.8,273.6-398,271.6-398.1,271.2z M-400.5,276.3c-1,4.2-3.3,8-6.6,11l-17.1,15.2l-16.8-15.2c-3.3-3-5.6-6.8-6.6-11
		c-0.7-3-0.4-4.7-0.4-4.7l0-0.1c0.6-7.3,5.7-12.6,12.1-12.6c4.7,0,8.8,2.9,10.8,7.5l0.9,2.2l0.9-2.2c1.9-4.6,6.3-7.5,11.1-7.5
		c6.4,0,11.4,5.3,12.1,12.7C-400.1,271.6-399.8,273.3-400.5,276.3z"/>
	<path class="st0" d="M-434,262.9c-5.5,0-10,4.5-10,10c0,0.6,0.4,1,1,1c0.6,0,1-0.4,1-1c0-4.4,3.6-8,8-8c0.6,0,1-0.4,1-1
		C-433,263.4-433.4,262.9-434,262.9z"/>
</g>
</svg>
