<?xml version="1.0" encoding="utf-8"?>
<!-- Generator: Adobe Illustrator 19.0.0, SVG Export Plug-In . SVG Version: 6.00 Build 0)  -->
<svg version="1.1" id="Capa_1" xmlns="http://www.w3.org/2000/svg" xmlns:xlink="http://www.w3.org/1999/xlink" x="0px" y="0px"
	 viewBox="-446 251 60 60" style="enable-background:new -446 251 60 60;" xml:space="preserve">
<style type="text/css">
	.st0{fill:#FFFBFC;}
</style>
<g>
	<path class="st0" d="M-430.5,268h13c0.6,0,1-0.4,1-1s-0.4-1-1-1h-13c-0.6,0-1,0.4-1,1S-431.1,268-430.5,268z"/>
	<path class="st0" d="M-430.5,299h13c0.6,0,1-0.4,1-1s-0.4-1-1-1h-13c-0.6,0-1,0.4-1,1S-431.1,299-430.5,299z"/>
	<path class="st0" d="M-430.5,274h29c0.6,0,1-0.4,1-1s-0.4-1-1-1h-29c-0.6,0-1,0.4-1,1S-431.1,274-430.5,274z"/>
	<path class="st0" d="M-430.5,286h29c0.6,0,1-0.4,1-1s-0.4-1-1-1h-29c-0.6,0-1,0.4-1,1S-431.1,286-430.5,286z"/>
	<path class="st0" d="M-430.5,293h29c0.6,0,1-0.4,1-1s-0.4-1-1-1h-29c-0.6,0-1,0.4-1,1S-431.1,293-430.5,293z"/>
	<path class="st0" d="M-430.5,280h14c0.6,0,1-0.4,1-1s-0.4-1-1-1h-14c-0.6,0-1,0.4-1,1S-431.1,280-430.5,280z"/>
	<path class="st0" d="M-401.5,278h-7c-0.6,0-1,0.4-1,1s0.4,1,1,1h7c0.6,0,1-0.4,1-1S-400.9,278-401.5,278z"/>
	<path class="st0" d="M-413.2,278.3c-0.2,0.2-0.3,0.4-0.3,0.7c0,0.3,0.1,0.5,0.3,0.7c0.2,0.2,0.4,0.3,0.7,0.3c0.3,0,0.5-0.1,0.7-0.3
		c0.2-0.2,0.3-0.4,0.3-0.7c0-0.3-0.1-0.5-0.3-0.7C-412.2,277.9-412.8,277.9-413.2,278.3z"/>
	<path class="st0" d="M-404.5,253h-6v-1c0-0.6-0.4-1-1-1h-9c-0.6,0-1,0.4-1,1v1h-6h-13v58h49v-58H-404.5z M-412.5,253v1v2h-7v-2v-1
		H-412.5z M-421.5,255v2v1h1h9h1v-1v-2h5v1v3h-21v-3v-1H-421.5z M-428.5,260v1h1h23h1v-1v-2h7v48h-39v-48h7V260z M-393.5,309h-45
		v-54h10v1h-9v52h43v-52h-9v-1h10V309z"/>
</g>
</svg>
