<?xml version="1.0" encoding="utf-8"?>
<!-- Generator: Adobe Illustrator 19.0.0, SVG Export Plug-In . SVG Version: 6.00 Build 0)  -->
<svg version="1.1" id="Capa_1" xmlns="http://www.w3.org/2000/svg" xmlns:xlink="http://www.w3.org/1999/xlink" x="0px" y="0px"
	 viewBox="-446 251 60 60" style="enable-background:new -446 251 60 60;" xml:space="preserve">
<style type="text/css">
	.st0{fill:#20A4F3;}
</style>
<path class="st0" d="M-433,251c-1.5,0-3,0.7-4.1,1.8c-1,1.1-1.5,2.7-1.4,4.2h0v49c0,2.8,2.3,5,5,5h40v-49v-2v-9H-433z M-436.5,306
	v-45c0.8,0.6,1.9,1,3,1v47C-435.2,309-436.5,307.6-436.5,306z M-395.5,309h-36v-47h3v25.2c0,0.7,0.4,1.3,1.1,1.4
	c0.1,0,0.3,0.1,0.4,0.1c0,0,0,0,0,0c0,0,0.1,0,0.1,0c0.1,0,0.2,0,0.3-0.1c0,0,0.1,0,0.1-0.1c0.1,0,0.2-0.1,0.3-0.2
	c0,0,0.1-0.1,0.1-0.1c0.1-0.1,0.2-0.2,0.3-0.3l4.2-7l4.2,7c0.3,0.5,0.9,0.8,1.5,0.7c0,0,0.1,0,0.1,0c0.7-0.2,1.1-0.8,1.1-1.4V262h19
	L-395.5,309L-395.5,309z M-416.4,260.5L-416.4,260.5l-0.1,0.3v0l-0.1,0.2l0.1,0.2v0.1v24.1l-5-8.3l-5,8.3v-24.2l1.6-3.2h9.8
	L-416.4,260.5z M-413.9,260l2-4h-14.2l-2,4h-4.7c-1.9,0-3.5-1.4-3.7-3.1c-0.1-1,0.2-2,0.9-2.7c0.7-0.7,1.6-1.2,2.6-1.2h37.5v1h-5
	c-0.6,0-1,0.4-1,1s0.4,1,1,1h5v1h-4c-0.6,0-1,0.4-1,1s0.4,1,1,1h4v1H-413.9z"/>
</svg>
