<?xml version="1.0" encoding="utf-8"?>
<!-- Generator: Adobe Illustrator 19.0.0, SVG Export Plug-In . SVG Version: 6.00 Build 0)  -->
<svg version="1.1" id="Layer_1" xmlns="http://www.w3.org/2000/svg" xmlns:xlink="http://www.w3.org/1999/xlink" x="0px" y="0px"
	 viewBox="-244 48 465 465" style="enable-background:new -244 48 465 465;" xml:space="preserve">
<style type="text/css">
	.st0{fill:#20A4F3;}
</style>
<g transform="translate(0 -540.36)">
	<g>
		<g>
			<path class="st0" d="M164.1,838.4c-4-0.8-8,1.8-8.8,5.9c-5.3,26.2-15.3,50.8-32.7,79.7c-2.1,3.6-1,8.2,2.6,10.3
				c1.3,0.8,2.6,1.1,3.9,1.1c2.6,0,5-1.3,6.4-3.7c18.3-30.4,28.9-56.5,34.5-84.5C170.8,843.2,168.2,839.2,164.1,838.4z"/>
			
				<rect x="43.3" y="782.1" transform="matrix(0.7071 0.7071 -0.7071 0.7071 580.3787 198.3028)" class="st0" width="15" height="35.2"/>
			
				<rect x="-148.3" y="890.5" transform="matrix(0.7071 0.7071 -0.7071 0.7071 600.8621 365.5381)" class="st0" width="15" height="35.2"/>
			
				<rect x="-111.2" y="852.9" transform="matrix(-0.7071 -0.7071 0.7071 -0.7071 -792.5096 1412.814)" class="st0" width="15" height="35.2"/>
			
				<rect x="-36.3" y="778.4" transform="matrix(-0.7071 -0.7071 0.7071 -0.7071 -612.0604 1338.5731)" class="st0" width="15" height="35.2"/>
			
				<rect x="-73.7" y="815.7" transform="matrix(-0.7071 -0.7071 0.7071 -0.7071 -702.1824 1375.7986)" class="st0" width="15" height="35.2"/>
			
				<rect x="0.8" y="741" transform="matrix(-0.7071 -0.7071 0.7071 -0.7071 -522.1288 1300.8424)" class="st0" width="15" height="35.2"/>
			
				<rect x="38.3" y="703.7" transform="matrix(-0.7071 -0.7071 0.7071 -0.7071 -431.7903 1263.7582)" class="st0" width="15" height="35.2"/>
			
				<rect x="75.6" y="666.3" transform="matrix(-0.7071 -0.7071 0.7071 -0.7071 -341.7894 1226.1973)" class="st0" width="15" height="35.2"/>
			
				<rect x="-106" y="931.5" transform="matrix(0.7071 0.7071 -0.7071 0.7071 642.2835 347.6768)" class="st0" width="15" height="35.2"/>
			
				<rect x="-68.7" y="894.1" transform="matrix(0.7071 0.7071 -0.7071 0.7071 626.7769 310.3004)" class="st0" width="15" height="35.2"/>
			
				<rect x="6" y="819.5" transform="matrix(0.7071 0.7071 -0.7071 0.7071 595.8895 235.6693)" class="st0" width="15" height="35.2"/>
			
				<rect x="-31.3" y="856.9" transform="matrix(0.7071 0.7071 -0.7071 0.7071 611.3668 272.9753)" class="st0" width="15" height="35.2"/>
			
				<rect x="80.7" y="744.9" transform="matrix(0.7071 0.7071 -0.7071 0.7071 564.9728 160.9678)" class="st0" width="15" height="35.2"/>
			
				<rect x="118" y="707.5" transform="matrix(0.7071 0.7071 -0.7071 0.7071 549.4914 123.6718)" class="st0" width="15" height="35.2"/>
			<path class="st0" d="M152.7,656.2c-43.9-43.7-102.2-67.8-164.2-67.8c-62.5,0-120.9,24.1-164.7,67.8
				c-43.7,43.7-67.8,102.2-67.8,164.7c0,62,24.1,120.3,67.8,164.2c43.9,44,102.4,68.3,164.7,68.3c61.9,0,120.2-24.3,164.2-68.3
				c44-44,68.3-102.4,68.3-164.2C221,758.6,196.7,700.1,152.7,656.2z M-229,820.9c0-119.9,97.6-217.5,217.5-217.5
				c35.5,0,69,8.5,98.6,23.7l-292.4,292.4C-220.4,889.9-229,856.4-229,820.9z M-137.2,998.3l19-19l-10.6-10.6l-20.4,20.4
				c-11.4-9.3-21.8-19.8-31.1-31.1l19.7-19.7l-10.6-10.6l-18.3,18.3c-2.9-4.1-5.7-8.4-8.3-12.8l298.5-298.5
				c4.4,2.6,8.6,5.4,12.8,8.3l-10.8,10.8l10.6,10.6l12.3-12.3c11.3,9.2,21.6,19.4,30.8,30.6L144.8,695l10.9,10.3l9.9-10.5
				c2.9,4,5.6,8.1,8.2,12.3l-299.1,299.1C-129.4,1003.7-133.4,1001.1-137.2,998.3z M-11.5,1038.4c-36.1,0-70.2-8.9-100.2-24.5
				l293.2-293.2c15.7,30,24.5,64.1,24.5,100.2C206,940.8,108.4,1038.4-11.5,1038.4z"/>
			<circle class="st0" cx="113" cy="952.4" r="7.5"/>
		</g>
	</g>
</g>
</svg>
